PathFileType	4	(X/Y/Z)	C:/Users/opensim2020/Desktop/walking_exp_matlab/subject06_walking22_straight_03.trc																																																																																																																																		
DataRate	CameraRate	NumFrames	NumMarkers	Units	OrigDataRate	OrigDataStartFrame	OrigNumFrames																																																																																																																														
100	100	4	44	mm	100	1712	77																																																																																																																														
Frame#	Time	LFHD			RFHD			LBHD			RBHD			C7			T10			CLAV			STRN			RBAK			LSHO			LUPA			LELB			LFRM			LWRA			LWRB			LFIN			RSHO			RUPA			RELB			RFRM			RWRA			RWRB			RFIN			LASI			RASI			LPSI			RPSI			LTHI			LKNE			LTIB			LANK			LHEE			LTOE			RTHI			RKNE			RTIB			RANK			RHEE			RTOE			*39			*40			*41			*42			*43		
		X1	Y1	Z1	X2	Y2	Z2	X3	Y3	Z3	X4	Y4	Z4	X5	Y5	Z5	X6	Y6	Z6	X7	Y7	Z7	X8	Y8	Z8	X9	Y9	Z9	X10	Y10	Z10	X11	Y11	Z11	X12	Y12	Z12	X13	Y13	Z13	X14	Y14	Z14	X15	Y15	Z15	X16	Y16	Z16	X17	Y17	Z17	X18	Y18	Z18	X19	Y19	Z19	X20	Y20	Z20	X21	Y21	Z21	X22	Y22	Z22	X23	Y23	Z23	X24	Y24	Z24	X25	Y25	Z25	X26	Y26	Z26	X27	Y27	Z27	X28	Y28	Z28	X29	Y29	Z29	X30	Y30	Z30	X31	Y31	Z31	X32	Y32	Z32	X33	Y33	Z33	X34	Y34	Z34	X35	Y35	Z35	X36	Y36	Z36	X37	Y37	Z37	X38	Y38	Z38	X39	Y39	Z39	X40	Y40	Z40	X41	Y41	Z41	X42	Y42	Z42	X43	Y43	Z43	X44	Y44	Z44
																																																																																																																																					
29	0.28	-144.05156	1648.91663	1352.28687	-134.34586	1649.78992	1484.37695	-278.63074	1600.31445	1367.06702	-267.6658	1605.71387	1496.18677	-280.86417	1450.05286	1427.20874	-331.08154	1121.77661	1437.64526	-174.38789	1366.12695	1430.36011	-143.1256	1190.57373	1430.72351	-364.91516	1286.80347	1510.47839	-226.49733	1397.04456	1266.92627	-269.85352	1202.20825	1190.58643	-303.10437	1095.00793	1176.54871	-312.13541	945.57159	1149.53979	-278.29245	819.2442	1187.45557	-338.81296	829.02802	1149.64258	-318.51584	740.00726	1148.59766	-219.44662	1405.63464	1589.56641	-271.96799	1219.03503	1690.44763	-266.6582	1098.6803	1713.20398	-234.48192	984.42426	1733.82727	-152.34117	861.51184	1701.16187	-202.88618	850.67993	1742.67456	-149.22472	786.50903	1743.84961	-139.5025	963.32434	1345.25293	-170.26628	960.08942	1563.68311	-299.65677	989.20062	1353.21069	-317.8728	983.86737	1519.6759	-155.6683	652.92554	1279.33374	-119.72366	495.45755	1311.53662	-154.40854	239.54533	1321.1615	-165.62701	69.49829	1365.78174	-208.8243	56.57837	1410.56274	-24.40268	41.97093	1372.36414	-212.69331	622.38306	1623.14648	-192.78596	496.99466	1616.74426	-387.31302	336.34952	1612.29675	-543.07257	238.14766	1569.047	-581.41211	255.50504	1521.66223	-500.41724	85.51878	1576.1073	-238.3942	1696.31238	1414.99097	NaN	NaN	NaN	NaN	NaN	NaN	NaN	NaN	NaN	NaN	NaN	NaN
30	0.29	-128.84624	1650.90833	1352.38599	-119.00036	1651.54553	1484.39722	-263.39392	1603.0592	1366.96643	-252.47591	1608.20056	1496.08801	-265.92957	1452.21814	1426.69128	-316.54175	1124.36072	1436.97644	-159.71503	1368.39465	1430.146	-128.38617	1192.9519	1430.27295	-350.37946	1289.10278	1509.61438	-210.91153	1399.49243	1266.70093	-249.68065	1203.41895	1190.43701	-280.45428	1095.5509	1176.11243	-286.07022	945.9032	1149.58569	-250.73599	820.35638	1188.82581	-310.1167	828.8631	1149.35034	-288.16089	740.35626	1149.02734	-205.38618	1407.75464	1589.22668	-259.73898	1221.15967	1689.11108	-255.56787	1100.63708	1711.43762	-226.92526	985.28406	1732.56543	-148.7307	859.40027	1701.21423	-200.04706	850.50281	1742.34045	-148.55611	784.49945	1744.23145	-125.58278	965.27289	1344.18494	-154.86705	963.38422	1562.83289	-285.48291	991.48962	1353.19543	-302.56253	986.51788	1519.63513	-145.97749	653.5647	1279.39026	-113.85069	494.9881	1311.51379	-152.39026	239.49438	1321.7085	-165.64778	69.6708	1365.89563	-208.76596	56.78386	1410.41077	-24.58883	42.00788	1372.30566	-189.93643	625.8562	1621.85925	-166.42488	501.1076	1615.04712	-356.79324	335.35791	1611.17517	-510.11029	232.28694	1568.33484	-550.42664	247.18982	1521.17102	-457.06778	83.58396	1576.10632	-222.60928	1698.7522	1415.04004	NaN	NaN	NaN	NaN	NaN	NaN	NaN	NaN	NaN	NaN	NaN	NaN
31	0.3	-112.99367	1652.84497	1352.49524	-103.38576	1653.22925	1484.71716	-247.98842	1605.64685	1366.87219	-237.30544	1610.51575	1496.07861	-251.29689	1454.07324	1426.26392	-301.80017	1126.65601	1436.2926	-145.1319	1370.50745	1430.06262	-113.66297	1195.13464	1429.80566	-335.95389	1291.18079	1508.83008	-195.44397	1401.88513	1266.56323	-229.71709	1204.73572	1190.34851	-257.69489	1096.21716	1175.81299	-259.68146	946.48187	1149.63684	-223.24983	821.77234	1190.4093	-281.0835	828.8371	1149.05481	-257.17087	740.96997	1149.38452	-191.49434	1409.76953	1588.79395	-247.42598	1223.29944	1687.80542	-245.03699	1102.62671	1709.53918	-219.66801	986.36566	1731.21191	-145.49788	857.53894	1701.25134	-197.54628	850.45868	1741.84619	-148.30942	782.86633	1744.61816	-111.73559	966.89563	1343.01453	-139.5826	966.27771	1561.83826	-271.12775	993.53021	1353.10413	-287.27194	989.23431	1519.56946	-136.61772	653.85626	1279.06348	-107.92597	494.44348	1311.31836	-150.15637	239.59853	1321.39478	-165.66345	69.81044	1366.04248	-208.7912	56.88282	1410.70056	-24.70204	42.07163	1372.27393	-167.6924	629.3457	1621.09302	-140.56848	505.2652	1613.44873	-326.61887	334.14615	1609.84424	-476.1864	225.17247	1567.34802	-518.18634	237.12993	1520.46643	-412.25067	82.11282	1575.49463	-206.89188	1701.005	1415.23303	NaN	NaN	NaN	NaN	NaN	NaN	NaN	NaN	NaN	NaN	NaN	NaN
32	0.31	-97.33751	1654.53418	1352.78992	-88.12584	1654.43115	1484.92651	-232.70596	1608.01526	1366.85632	-222.09831	1612.50513	1496.04236	-236.98112	1455.78442	1425.93848	-287.22818	1128.78662	1435.75635	-130.55299	1372.38025	1429.87878	-98.95299	1197.01746	1429.33447	-321.38303	1293.02124	1508.02893	-180.10297	1404.09241	1266.42871	-209.98105	1206.03687	1190.58875	-235.47633	1096.94934	1175.62805	-233.31349	947.16113	1149.66528	-194.49992	823.42133	1191.17273	-251.97595	829.21625	1148.7677	-225.65764	741.87708	1149.98535	-177.83421	1411.65833	1588.35229	-235.22408	1225.34766	1686.61243	-234.70998	1104.56775	1707.73193	-212.69197	987.50537	1729.88416	-142.57198	855.84961	1701.24817	-195.31976	850.90753	1741.40112	-148.36212	781.42456	1744.84607	-97.78758	968.08594	1341.9137	-124.33265	968.94733	1561.08496	-256.94113	995.34528	1352.96277	-271.85437	991.70154	1519.47314	-127.27222	653.90765	1279.06409	-102.13039	493.80984	1311.13538	-147.92253	239.52251	1321.52258	-165.54207	69.94116	1366.21228	-208.498	56.6708	1411.16162	-24.79273	42.05078	1372.23279	-145.66107	632.76178	1620.65601	-115.01575	509.37134	1611.94946	-296.02112	332.54105	1608.68958	-441.05634	216.91115	1566.23865	-484.32947	225.6424	1519.41321	-366.07077	80.3539	1576.16675	-191.06474	1703.02808	1415.5238	NaN	NaN	NaN	NaN	NaN	NaN	NaN	NaN	NaN	NaN	NaN	NaN
